<svg width="100" height="100" viewBox="0 0 100 100" fill="none" xmlns="http://www.w3.org/2000/svg">
<g clip-path="url(#clip0_108_16)">
<rect width="100" height="100" fill="black"/>
<path fill-rule="evenodd" clip-rule="evenodd" d="M16.8237 55.4051C17.7315 19.9038 35.1381 13.1362 69.635 26.549C90.0646 18.0769 98.0657 15.0746 98.5178 16.7137C99.1423 17.1739 89.3552 28.4722 76.1757 43.9666C73.0581 85.291 47.7379 80.0585 32.0308 76.489L37.8892 71.0907C62.1702 70.761 68.8844 60.5116 66.9819 43.0702C76.1897 35.8857 78.7975 32.7886 91.8506 20.6671C92.4288 19.3845 65.5029 38.0405 48.0031 54.7328C30.5033 71.425 23.9797 74.5015 2.96569 82.6243C-5.26104 85.1487 17.0063 59.1055 16.8237 55.4051ZM62.8211 38.0023C47.8179 50.296 37.4562 60.4509 32.225 60.9759C26.1518 63.8523 19.0774 43.3618 34.0333 31.8098C46.1771 22.4298 64.0532 33.4122 62.8211 38.0023Z" fill="white" stroke="white"/>
</g>
<defs>
<clipPath id="clip0_108_16">
<rect width="100" height="100" fill="white"/>
</clipPath>
</defs>
</svg>
